<?xml version="1.0" standalone="no"?><!DOCTYPE svg PUBLIC "-//W3C//DTD SVG 1.1//EN" "http://www.w3.org/Graphics/SVG/1.1/DTD/svg11.dtd"><svg t="1589946082210" class="icon" viewBox="0 0 1024 1024" version="1.1" xmlns="http://www.w3.org/2000/svg" p-id="964" xmlns:xlink="http://www.w3.org/1999/xlink" width="200" height="200"><defs><style type="text/css"></style></defs><path d="M164.0281126 912.04931217h698.31092995c26.03871304 0 47.34311449-21.30440146 47.34311449-47.34311319v-165.70089876c0-14.20293473-9.46862316-23.6715566-23.6715566-23.67155659s-23.6715566 9.46862316-23.67155789 23.67155659v165.70089876H164.0281126V166.39526773h698.31092995v146.76365375c0 14.20293473 9.46862316 23.6715566 23.67155789 23.6715566s23.6715566-9.46862316 23.6715566-23.6715566v-146.76365375c0-26.03871304-21.30440146-47.34311449-47.34311449-47.34311319H164.0281126c-26.03871304 0-47.34311449 21.30440146-47.34311449 47.34311319v698.31093125c0 26.03871304 18.93724502 47.34311449 47.34311449 47.34311319z" fill="" p-id="965"></path><path d="M680.0680539 720.30970168c4.73431158 4.73431158 11.83577829 7.10146672 16.57008988 7.10146671s11.83577829-2.36715514 16.57008988-7.10146671l189.37245665-189.37245666c2.36715514-2.36715514 4.73431158-4.73431158 4.73431158-7.10146673 2.36715514-4.73431158 2.36715514-11.83577829 0-18.93724501-2.36715514-2.36715514-2.36715514-4.73431158-4.73431158-7.10146801l-189.37245665-189.37245537c-9.46862316-9.46862316-23.6715566-9.46862316-33.14017976 0s-9.46862316 23.6715566 0 33.14017976l149.1308089 149.13080888H384.17359257c-14.20293473 0-23.6715566 9.46862316-23.6715566 23.6715566s9.46862316 23.6715566 23.6715566 23.6715579h445.02527023l-149.1308089 149.13080888c-9.46862316 9.46862316-9.46862316 23.6715566 0 33.14017976z" fill="" p-id="966"></path></svg>