<?xml version="1.0" standalone="no"?><!DOCTYPE svg PUBLIC "-//W3C//DTD SVG 1.1//EN" "http://www.w3.org/Graphics/SVG/1.1/DTD/svg11.dtd"><svg t="1589946086070" class="icon" viewBox="0 0 1024 1024" version="1.1" xmlns="http://www.w3.org/2000/svg" p-id="1088" xmlns:xlink="http://www.w3.org/1999/xlink" width="200" height="200"><defs><style type="text/css"></style></defs><path d="M819.02000001 449.29999999l0.17999999 0L524.84 137.48c-7.62000001-7.62000001-20.10000001-7.62000001-27.72 0L205.21999999 449.12C202.76 451.04 201.2 453.44 201.2 456.13999999c0 6.42000001 8.4 11.52 18.96 11.52 0 0 0.06000001 0 0.18000001 0l0 0 147.11999998 0c11.10000001 6.30000001 25.32 18.24 30.36000002 39.6l0 121.56000002c0 21.72 17.64 39.24 39.29999999 39.24l149.76 0c21.66000001 0 39.24-17.52 39.24-39.24L626.12 502.16c3.78000001-8.16 12.78000001-24.48 27.78000001-34.50000001l155.75999998 2e-8 2e-8-0.6c7.74000001-1.50000001 13.26000001-5.76 13.25999999-10.92000002C822.92 453.56 821.48 451.21999999 819.02000001 449.29999999z" p-id="1089"></path><path d="M397.88 708.62000001l0 16.79999998c0 21.6 17.64 39.24 39.30000001 39.24l149.81999999 0c21.72 0 39.30000001-17.64 39.30000001-39.24l0-16.8L397.88 708.62000001z" p-id="1090"></path><path d="M932 708.62000001c-0.24-11.22000001-10.56-20.22000001-23.28-20.22000001-12.84 0-23.22000001 9-23.28 20.21999999l-0.78000001 0 0 96.54000001c0 27.06000001-21.90000001 49.02000001-48.96 49.02000001L187.69999999 854.18000001c-27.06000001 0-49.02000001-21.96-49.01999999-49.02000001l0-96.54000001L138.56 708.62000001c-0.06000001-11.22000001-10.44-20.22000001-23.28-20.22000001-12.72 0-23.04 9-23.28 20.21999999l0 0 0 85.50000001c0 54.24 43.74000001 98.16 97.74000001 98.16l644.52 0c53.94000001 0 97.74000001-43.86000001 97.73999999-98.16L932 708.62000001 932 708.62000001z" p-id="1091"></path></svg>